<svg xmlns="http://www.w3.org/2000/svg" viewBox="0 0 32 32" width="32" height="32">
  <!-- 背景圆形 -->
  <circle cx="16" cy="16" r="15" fill="#007AFF" stroke="#0056CC" stroke-width="2"/>
  
  <!-- 日历主体 -->
  <rect x="6" y="8" width="20" height="16" rx="2" fill="white" stroke="#007AFF" stroke-width="1"/>
  
  <!-- 日历头部 -->
  <rect x="6" y="8" width="20" height="4" fill="#007AFF"/>
  
  <!-- 日历网格线 -->
  <line x1="6" y1="12" x2="26" y2="12" stroke="#E5E5E7" stroke-width="0.5"/>
  <line x1="6" y1="16" x2="26" y2="16" stroke="#E5E5E7" stroke-width="0.5"/>
  <line x1="6" y1="20" x2="26" y2="20" stroke="#E5E5E7" stroke-width="0.5"/>
  <line x1="6" y1="24" x2="26" y2="24" stroke="#E5E5E7" stroke-width="0.5"/>
  
  <!-- 垂直网格线 -->
  <line x1="10" y1="12" x2="10" y2="24" stroke="#E5E5E7" stroke-width="0.5"/>
  <line x1="14" y1="12" x2="14" y2="24" stroke="#E5E5E7" stroke-width="0.5"/>
  <line x1="18" y1="12" x2="18" y2="24" stroke="#E5E5E7" stroke-width="0.5"/>
  <line x1="22" y1="12" x2="22" y2="24" stroke="#E5E5E7" stroke-width="0.5"/>
  
  <!-- 课程标记点 -->
  <circle cx="12" cy="14" r="1" fill="#FF3B30"/>
  <circle cx="16" cy="18" r="1" fill="#34C759"/>
  <circle cx="20" cy="22" r="1" fill="#FF9500"/>
  
  <!-- 日历装订孔 -->
  <circle cx="8" cy="10" r="0.5" fill="white"/>
  <circle cx="24" cy="10" r="0.5" fill="white"/>
</svg>
